<svg width="15" height="16" viewBox="0 0 15 16" fill="none" xmlns="http://www.w3.org/2000/svg">
<mask id="mask0_151_132" style="mask-type:alpha" maskUnits="userSpaceOnUse" x="0" y="0" width="15" height="16">
<rect y="0.5" width="15" height="15" fill="#D9D9D9"/>
</mask>
<g mask="url(#mask0_151_132)">
<path d="M7.5 8.875L9.3125 10.6875C9.42708 10.8021 9.57292 10.8594 9.75 10.8594C9.92708 10.8594 10.0729 10.8021 10.1875 10.6875C10.3021 10.5729 10.3594 10.4271 10.3594 10.25C10.3594 10.0729 10.3021 9.92708 10.1875 9.8125L8.375 8L10.1875 6.1875C10.3021 6.07292 10.3594 5.92708 10.3594 5.75C10.3594 5.57292 10.3021 5.42708 10.1875 5.3125C10.0729 5.19792 9.92708 5.14062 9.75 5.14062C9.57292 5.14062 9.42708 5.19792 9.3125 5.3125L7.5 7.125L5.6875 5.3125C5.57292 5.19792 5.42708 5.14062 5.25 5.14062C5.07292 5.14062 4.92708 5.19792 4.8125 5.3125C4.69792 5.42708 4.64062 5.57292 4.64062 5.75C4.64062 5.92708 4.69792 6.07292 4.8125 6.1875L6.625 8L4.8125 9.8125C4.69792 9.92708 4.64062 10.0729 4.64062 10.25C4.64062 10.4271 4.69792 10.5729 4.8125 10.6875C4.92708 10.8021 5.07292 10.8594 5.25 10.8594C5.42708 10.8594 5.57292 10.8021 5.6875 10.6875L7.5 8.875ZM7.5 14.25C6.63542 14.25 5.82292 14.0859 5.0625 13.7578C4.30208 13.4297 3.64062 12.9844 3.07812 12.4219C2.51562 11.8594 2.07031 11.1979 1.74219 10.4375C1.41406 9.67708 1.25 8.86458 1.25 8C1.25 7.13542 1.41406 6.32292 1.74219 5.5625C2.07031 4.80208 2.51562 4.14062 3.07812 3.57812C3.64062 3.01562 4.30208 2.57031 5.0625 2.24219C5.82292 1.91406 6.63542 1.75 7.5 1.75C8.36458 1.75 9.17708 1.91406 9.9375 2.24219C10.6979 2.57031 11.3594 3.01562 11.9219 3.57812C12.4844 4.14062 12.9297 4.80208 13.2578 5.5625C13.5859 6.32292 13.75 7.13542 13.75 8C13.75 8.86458 13.5859 9.67708 13.2578 10.4375C12.9297 11.1979 12.4844 11.8594 11.9219 12.4219C11.3594 12.9844 10.6979 13.4297 9.9375 13.7578C9.17708 14.0859 8.36458 14.25 7.5 14.25Z" fill="#B81148"/>
</g>
</svg>
