<svg width="14" height="14" viewBox="0 0 14 14" fill="none" xmlns="http://www.w3.org/2000/svg">
<path d="M12.8895 13.6474L7.92638 8.68426C7.50971 9.00049 7.05282 9.24542 6.55571 9.41903C6.0586 9.59264 5.54565 9.67944 5.01686 9.67944C3.71707 9.67944 2.61209 9.22449 1.70192 8.31457C0.791753 7.40465 0.33667 6.30023 0.33667 5.0013C0.33667 3.70235 0.791628 2.59748 1.70155 1.68669C2.61146 0.775915 3.71589 0.320526 5.01484 0.320526C6.31377 0.320526 7.41863 0.77561 8.32942 1.68578C9.24021 2.59594 9.69561 3.70092 9.69561 5.00071C9.69561 5.54553 9.60613 6.0665 9.42717 6.56361C9.24821 7.06072 9.00595 7.5096 8.7004 7.91023L13.6635 12.8734L12.8895 13.6474ZM5.01613 8.59615C6.02041 8.59615 6.87084 8.24786 7.56742 7.55128C8.264 6.85469 8.6123 6.00426 8.6123 4.99998C8.6123 3.99571 8.264 3.14528 7.56742 2.44869C6.87084 1.75211 6.02041 1.40382 5.01613 1.40382C4.01185 1.40382 3.16142 1.75211 2.46484 2.44869C1.76827 3.14528 1.41998 3.99571 1.41998 4.99998C1.41998 6.00426 1.76827 6.85469 2.46484 7.55128C3.16142 8.24786 4.01185 8.59615 5.01613 8.59615Z" fill="white"/>
</svg>
