<svg width="73" height="36" viewBox="0 0 73 36" fill="none" xmlns="http://www.w3.org/2000/svg">
<g clip-path="url(#clip0_4_219)">
<path d="M6.76025 35.9997V30.5702H7.90734V35.9997H6.76025Z" fill="#808080"/>
<path d="M17.0469 33.2328C17.0469 34.1268 16.7934 34.8115 16.2863 35.2868C15.7791 35.7621 15.0471 35.9997 14.0903 35.9997H12.5581V30.5702H14.2566C15.1399 30.5702 15.8257 30.8041 16.3141 31.272C16.5659 31.5293 16.7612 31.8368 16.8875 32.1745C17.0137 32.5122 17.068 32.8728 17.0469 33.2328ZM15.8552 33.2627C15.8552 32.0966 15.3421 31.5134 14.3158 31.5133H13.7052V35.049H14.1965C15.3023 35.049 15.8552 34.4536 15.8552 33.2627Z" fill="#808080"/>
<path d="M21.6972 35.9997V30.5702H22.8443V35.9997H21.6972Z" fill="#808080"/>
<path d="M32.6459 33.2033C32.6459 34.1021 32.4239 34.7929 31.9798 35.2756C31.5358 35.7584 30.8993 35.9997 30.0702 35.9997C29.2409 35.9997 28.6045 35.7584 28.1608 35.2756C27.7172 34.7929 27.4952 34.0997 27.4948 33.1959C27.4948 32.2913 27.7175 31.6011 28.1627 31.1254C28.608 30.6498 29.2464 30.4114 30.0778 30.4103C30.909 30.4103 31.5448 30.6505 31.9852 31.1309C32.4257 31.6112 32.6459 32.302 32.6459 33.2033ZM28.6979 33.2033C28.6642 33.6852 28.7847 34.1654 29.0418 34.5738C29.1627 34.7289 29.3195 34.852 29.4986 34.9324C29.6777 35.0128 29.8736 35.0481 30.0694 35.0352C30.9846 35.0352 31.4423 34.4248 31.4423 33.2041C31.4423 31.9833 30.9872 31.3718 30.077 31.3694C29.8805 31.3564 29.6838 31.3916 29.5039 31.4719C29.324 31.5523 29.1663 31.6755 29.0445 31.8308C28.7852 32.2391 28.6636 32.7203 28.6976 33.2033H28.6979Z" fill="#808080"/>
<path d="M39.5881 35.9997L38.2855 31.7388H38.2522C38.2991 32.6055 38.3226 33.1836 38.3226 33.4733V35.9986H37.2974V30.5702H38.858L40.1384 34.7225H40.1605L41.5188 30.5702H43.0804V35.9997H42.0109V33.4299C42.0109 33.3086 42.0128 33.1687 42.0164 33.01C42.02 32.8513 42.0366 32.4305 42.0664 31.7475H42.0331L40.6381 35.9997H39.5881Z" fill="#808080"/>
<path d="M51.7233 35.9997L51.3309 34.7073H49.3585L48.9665 35.9997H47.7304L49.6398 30.5479H51.0424L52.9591 35.9997H51.7233ZM51.0573 33.7417C50.6944 32.5705 50.4902 31.9082 50.4448 31.7548C50.3994 31.6014 50.3666 31.4801 50.3466 31.3909C50.2651 31.7079 50.0321 32.4915 49.6473 33.7417H51.0573Z" fill="#808080"/>
<path d="M61.136 34.4178C61.1453 34.639 61.1024 34.8593 61.0108 35.0607C60.9192 35.2621 60.7814 35.4389 60.6087 35.5766C60.1821 35.8818 59.6643 36.0311 59.1414 35.9997C58.6127 36.0106 58.0885 35.8992 57.6096 35.6741V34.6028C57.9091 34.7422 58.219 34.8577 58.5365 34.9483C58.7626 35.0113 58.9958 35.045 59.2304 35.0485C59.4336 35.0614 59.6359 35.0109 59.8093 34.9038C59.8763 34.8547 59.9299 34.7895 59.9651 34.7142C60.0004 34.6389 60.0162 34.5559 60.0111 34.4728C60.0125 34.371 59.9815 34.2715 59.9224 34.1887C59.8503 34.094 59.7619 34.0129 59.6614 33.9493C59.4351 33.813 59.201 33.6902 58.9603 33.5816C58.6938 33.4651 58.4437 33.314 58.2164 33.1321C58.0538 32.9919 57.9194 32.8218 57.8205 32.6309C57.7179 32.4233 57.667 32.1938 57.6723 31.9622C57.6621 31.7486 57.7007 31.5355 57.785 31.3392C57.8694 31.1429 57.9973 30.9685 58.159 30.8293C58.5438 30.535 59.021 30.3888 59.5041 30.4174C59.7755 30.4161 60.0461 30.4498 60.3091 30.5175C60.5829 30.5908 60.8507 30.6852 61.11 30.7998L60.7401 31.6954C60.5075 31.5958 60.2682 31.5126 60.0241 31.4465C59.842 31.4003 59.655 31.3766 59.4673 31.3759C59.2878 31.3639 59.1101 31.418 58.9676 31.5282C58.9108 31.5772 58.8658 31.6384 58.8357 31.7072C58.8056 31.776 58.7912 31.8507 58.7937 31.9258C58.7913 32.0192 58.8157 32.1113 58.864 32.1912C58.9229 32.2789 58.9991 32.3536 59.0879 32.4105C59.3226 32.5514 59.5654 32.6782 59.815 32.7905C60.2112 32.9534 60.5663 33.2027 60.8548 33.5202C61.047 33.7788 61.1462 34.0953 61.136 34.4178Z" fill="#808080"/>
<path d="M61.0695 26.6742L47.3867 10.208V26.6742H40.7303L27.0475 10.2077V26.6742H14.4994L6.65751 17.2545V26.6742H0V-0.000369531H6.65669V7.83513L13.179 -0.000369531H27.0478L40.7306 16.4555V-0.000369531H47.3873L61.07 16.4552V-0.000369531H67.727V26.6742H61.0695ZM10.7042 12.5455L20.3914 24.1613V0.946806L10.7042 12.5455ZM70.0222 3.68792C69.7259 3.51333 69.4802 3.26386 69.3098 2.96434C69.1394 2.66483 69.0501 2.32574 69.0509 1.98083C69.0497 1.63391 69.1403 1.2929 69.3135 0.992672C69.4848 0.68946 69.7345 0.43834 70.0363 0.265871C70.3364 0.0913425 70.677 -0.000748159 71.0239 -0.00112797C71.3707 -0.00150778 71.7115 0.0898366 72.012 0.263707C72.3125 0.437578 72.562 0.687837 72.7354 0.989285C72.9089 1.29073 73.0001 1.63273 73 1.98083C73.0012 2.32268 72.9134 2.65891 72.7453 2.95623C72.6155 3.18489 72.4418 3.38541 72.2342 3.54618C72.0266 3.70695 71.7893 3.82476 71.536 3.8928C71.2827 3.96083 71.0185 3.97773 70.7586 3.94252C70.4988 3.9073 70.2485 3.82067 70.0222 3.68764V3.68792ZM70.1629 0.475389C69.8987 0.628022 69.6798 0.848542 69.5287 1.11426C69.3761 1.37777 69.2958 1.67713 69.2958 1.98191C69.2958 2.2867 69.3761 2.58606 69.5287 2.84957C69.6804 3.11261 69.8981 3.33112 70.1602 3.48328C70.4231 3.63675 70.7218 3.71771 71.026 3.71795C71.3301 3.71818 71.629 3.6377 71.8921 3.48464C72.1542 3.33241 72.3719 3.11392 72.5235 2.85093C72.6748 2.58898 72.7553 2.29189 72.7569 1.98911C72.7585 1.68634 72.6812 1.3884 72.5327 1.12484C72.3834 0.85965 72.1669 0.638783 71.9051 0.484617C71.6422 0.327294 71.342 0.243471 71.0359 0.241848C70.7298 0.240226 70.4288 0.320863 70.1642 0.475389H70.1629ZM71.6425 3.14105L71.0912 2.19116H70.6501V3.14105H70.3849V0.821963H70.9389C71.1459 0.808849 71.3512 0.866224 71.5217 0.984802C71.5934 1.04626 71.6496 1.1239 71.6856 1.21136C71.7217 1.29883 71.7366 1.39362 71.7291 1.48797C71.7317 1.61772 71.6965 1.74542 71.6279 1.85544C71.5573 1.96479 71.4566 2.05131 71.3381 2.10459L71.96 3.14024L71.6425 3.14105ZM70.6501 1.98083H70.9441C71.0801 1.98882 71.2142 1.94512 71.3197 1.85843C71.3667 1.8123 71.4031 1.75646 71.4265 1.69479C71.4498 1.63311 71.4595 1.56708 71.4549 1.50127C71.4549 1.19911 71.2825 1.04804 70.9379 1.04804H70.6501V1.98083Z" fill="url(#paint0_linear_4_219)"/>
<path opacity="0.36" d="M40.7306 26.6743L27.0478 10.2081V-0.000274658L40.7306 16.4556V26.6743Z" fill="url(#paint1_linear_4_219)"/>
<path opacity="0.36" d="M61.0697 26.6743L47.387 10.2081V-0.000274658L61.0697 16.4556V26.6743Z" fill="url(#paint2_linear_4_219)"/>
</g>
<defs>
<linearGradient id="paint0_linear_4_219" x1="1.01211" y1="2.08021" x2="30.2115" y2="46.8437" gradientUnits="userSpaceOnUse">
<stop stop-color="#3E009F"/>
<stop offset="1" stop-color="#F70052"/>
</linearGradient>
<linearGradient id="paint1_linear_4_219" x1="23.8187" y1="3.22734" x2="47.6385" y2="9.51919" gradientUnits="userSpaceOnUse">
<stop stop-color="#1A1517"/>
<stop offset="1" stop-color="#231E20" stop-opacity="0"/>
</linearGradient>
<linearGradient id="paint2_linear_4_219" x1="44.1578" y1="3.22734" x2="67.9777" y2="9.51919" gradientUnits="userSpaceOnUse">
<stop stop-color="#1A1517"/>
<stop offset="1" stop-color="#231E20" stop-opacity="0"/>
</linearGradient>
<clipPath id="clip0_4_219">
<rect width="73" height="36" fill="white"/>
</clipPath>
</defs>
</svg>
