<svg width="136" height="24" viewBox="0 0 136 24" fill="none" xmlns="http://www.w3.org/2000/svg">
<mask id="mask0_218_4131" style="mask-type:alpha" maskUnits="userSpaceOnUse" x="0" y="8" width="16" height="16">
<rect y="8" width="16" height="16" fill="#D9D9D9"/>
</mask>
<g mask="url(#mask0_218_4131)">
<path d="M7.99966 20.05L5.26633 21.6833C5.14411 21.75 5.02466 21.7777 4.90799 21.7666C4.79133 21.7555 4.68855 21.7166 4.59966 21.65C4.51077 21.5833 4.44411 21.4916 4.39966 21.375C4.35522 21.2583 4.34966 21.1389 4.38299 21.0166L5.09966 17.9666L2.68299 15.9166C2.58299 15.8277 2.52188 15.725 2.49966 15.6083C2.47744 15.4916 2.48299 15.3777 2.51633 15.2666C2.54966 15.1555 2.61077 15.0639 2.69966 14.9916C2.78855 14.9194 2.89966 14.8777 3.03299 14.8666L6.19966 14.5833L7.44966 11.6833C7.50522 11.5611 7.58299 11.4694 7.68299 11.4083C7.78299 11.3472 7.88855 11.3166 7.99966 11.3166C8.11077 11.3166 8.21633 11.3472 8.31633 11.4083C8.41633 11.4694 8.49411 11.5611 8.54966 11.6833L9.79966 14.6L12.9663 14.8666C13.0997 14.8777 13.2108 14.9222 13.2997 15C13.3886 15.0777 13.4497 15.1722 13.483 15.2833C13.5163 15.3944 13.5191 15.5055 13.4913 15.6166C13.4636 15.7277 13.3997 15.8277 13.2997 15.9166L10.8997 17.9666L11.6163 21.0166C11.6497 21.1389 11.6441 21.2583 11.5997 21.375C11.5552 21.4916 11.4886 21.5833 11.3997 21.65C11.3108 21.7166 11.208 21.7555 11.0913 21.7666C10.9747 21.7777 10.8552 21.75 10.733 21.6833L7.99966 20.05Z" fill="white"/>
</g>
<mask id="mask1_218_4131" style="mask-type:alpha" maskUnits="userSpaceOnUse" x="26" y="4" width="20" height="20">
<rect x="26" y="4" width="20" height="20" fill="#D9D9D9"/>
</mask>
<g mask="url(#mask1_218_4131)">
<path d="M36.0001 19.0625L32.5834 21.1042C32.4306 21.1875 32.2813 21.2222 32.1355 21.2083C31.9896 21.1944 31.8612 21.1458 31.7501 21.0625C31.639 20.9792 31.5556 20.8646 31.5001 20.7187C31.4445 20.5729 31.4376 20.4236 31.4792 20.2708L32.3751 16.4583L29.3542 13.8958C29.2292 13.7847 29.1528 13.6562 29.1251 13.5104C29.0973 13.3646 29.1042 13.2222 29.1459 13.0833C29.1876 12.9444 29.264 12.8299 29.3751 12.7396C29.4862 12.6493 29.6251 12.5972 29.7917 12.5833L33.7501 12.2292L35.3126 8.60417C35.382 8.45139 35.4792 8.3368 35.6042 8.26042C35.7292 8.18403 35.8612 8.14583 36.0001 8.14583C36.139 8.14583 36.2709 8.18403 36.3959 8.26042C36.5209 8.3368 36.6181 8.45139 36.6876 8.60417L38.2501 12.25L42.2084 12.5833C42.3751 12.5972 42.514 12.6528 42.6251 12.75C42.7362 12.8472 42.8126 12.9653 42.8542 13.1042C42.8959 13.2431 42.8994 13.3819 42.8647 13.5208C42.8299 13.6597 42.7501 13.7847 42.6251 13.8958L39.6251 16.4583L40.5209 20.2708C40.5626 20.4236 40.5556 20.5729 40.5001 20.7187C40.4445 20.8646 40.3612 20.9792 40.2501 21.0625C40.139 21.1458 40.0105 21.1944 39.8647 21.2083C39.7188 21.2222 39.5695 21.1875 39.4167 21.1042L36.0001 19.0625Z" fill="white"/>
</g>
<mask id="mask2_218_4131" style="mask-type:alpha" maskUnits="userSpaceOnUse" x="56" y="0" width="24" height="24">
<rect x="56" width="24" height="24" fill="#D9D9D9"/>
</mask>
<g mask="url(#mask2_218_4131)">
<path d="M67.9995 18.075L63.8995 20.525C63.7162 20.625 63.537 20.6666 63.362 20.65C63.187 20.6333 63.0328 20.575 62.8995 20.475C62.7662 20.375 62.6662 20.2375 62.5995 20.0625C62.5328 19.8875 62.5245 19.7083 62.5745 19.525L63.6495 14.95L60.0245 11.875C59.8745 11.7416 59.7828 11.5875 59.7495 11.4125C59.7162 11.2375 59.7245 11.0666 59.7745 10.9C59.8245 10.7333 59.9162 10.5958 60.0495 10.4875C60.1828 10.3791 60.3495 10.3166 60.5495 10.3L65.2995 9.87497L67.1745 5.52498C67.2578 5.34164 67.3745 5.20414 67.5245 5.11248C67.6745 5.02081 67.8328 4.97498 67.9995 4.97498C68.1662 4.97498 68.3245 5.02081 68.4745 5.11248C68.6245 5.20414 68.7412 5.34164 68.8245 5.52498L70.6995 9.89998L75.4495 10.3C75.6495 10.3166 75.8162 10.3833 75.9495 10.5C76.0828 10.6166 76.1745 10.7583 76.2245 10.925C76.2745 11.0916 76.2787 11.2583 76.237 11.425C76.1953 11.5916 76.0995 11.7416 75.9495 11.875L72.3495 14.95L73.4245 19.525C73.4745 19.7083 73.4662 19.8875 73.3995 20.0625C73.3328 20.2375 73.2328 20.375 73.0995 20.475C72.9662 20.575 72.812 20.6333 72.637 20.65C72.462 20.6666 72.2828 20.625 72.0995 20.525L67.9995 18.075Z" fill="white"/>
</g>
<mask id="mask3_218_4131" style="mask-type:alpha" maskUnits="userSpaceOnUse" x="90" y="4" width="20" height="20">
<rect x="90" y="4" width="20" height="20" fill="#D9D9D9"/>
</mask>
<g mask="url(#mask3_218_4131)">
<path d="M100 19.0625L96.5834 21.1042C96.4306 21.1875 96.2813 21.2222 96.1355 21.2083C95.9896 21.1944 95.8612 21.1458 95.7501 21.0625C95.639 20.9792 95.5556 20.8646 95.5001 20.7187C95.4445 20.5729 95.4376 20.4236 95.4792 20.2708L96.3751 16.4583L93.3542 13.8958C93.2292 13.7847 93.1528 13.6562 93.1251 13.5104C93.0973 13.3646 93.1042 13.2222 93.1459 13.0833C93.1876 12.9444 93.264 12.8299 93.3751 12.7396C93.4862 12.6493 93.6251 12.5972 93.7917 12.5833L97.7501 12.2292L99.3126 8.60417C99.382 8.45139 99.4792 8.3368 99.6042 8.26042C99.7292 8.18403 99.8612 8.14583 100 8.14583C100.139 8.14583 100.271 8.18403 100.396 8.26042C100.521 8.3368 100.618 8.45139 100.688 8.60417L102.25 12.25L106.208 12.5833C106.375 12.5972 106.514 12.6528 106.625 12.75C106.736 12.8472 106.813 12.9653 106.854 13.1042C106.896 13.2431 106.899 13.3819 106.865 13.5208C106.83 13.6597 106.75 13.7847 106.625 13.8958L103.625 16.4583L104.521 20.2708C104.563 20.4236 104.556 20.5729 104.5 20.7187C104.445 20.8646 104.361 20.9792 104.25 21.0625C104.139 21.1458 104.01 21.1944 103.865 21.2083C103.719 21.2222 103.57 21.1875 103.417 21.1042L100 19.0625Z" fill="white"/>
</g>
<mask id="mask4_218_4131" style="mask-type:alpha" maskUnits="userSpaceOnUse" x="120" y="8" width="16" height="16">
<rect x="120" y="8" width="16" height="16" fill="#D9D9D9"/>
</mask>
<g mask="url(#mask4_218_4131)">
<path d="M128 20.05L125.266 21.6833C125.144 21.75 125.025 21.7777 124.908 21.7666C124.791 21.7555 124.689 21.7166 124.6 21.65C124.511 21.5833 124.444 21.4916 124.4 21.375C124.355 21.2583 124.35 21.1389 124.383 21.0166L125.1 17.9666L122.683 15.9166C122.583 15.8277 122.522 15.725 122.5 15.6083C122.477 15.4916 122.483 15.3777 122.516 15.2666C122.55 15.1555 122.611 15.0639 122.7 14.9916C122.789 14.9194 122.9 14.8777 123.033 14.8666L126.2 14.5833L127.45 11.6833C127.505 11.5611 127.583 11.4694 127.683 11.4083C127.783 11.3472 127.889 11.3166 128 11.3166C128.111 11.3166 128.216 11.3472 128.316 11.4083C128.416 11.4694 128.494 11.5611 128.55 11.6833L129.8 14.6L132.966 14.8666C133.1 14.8777 133.211 14.9222 133.3 15C133.389 15.0777 133.45 15.1722 133.483 15.2833C133.516 15.3944 133.519 15.5055 133.491 15.6166C133.464 15.7277 133.4 15.8277 133.3 15.9166L130.9 17.9666L131.616 21.0166C131.65 21.1389 131.644 21.2583 131.6 21.375C131.555 21.4916 131.489 21.5833 131.4 21.65C131.311 21.7166 131.208 21.7555 131.091 21.7666C130.975 21.7777 130.855 21.75 130.733 21.6833L128 20.05Z" fill="white"/>
</g>
</svg>
