<svg width="78" height="68" viewBox="0 0 78 68" fill="none" xmlns="http://www.w3.org/2000/svg">
<path d="M6.10745 0.97961C6.10745 0.97961 0 0.332397 0 7.3944V13.3606H6.10745V7.36573H3.77261C3.77261 7.36573 3.32202 4.77687 6.10745 4.77687V0.97961Z" fill="#EC1654"/>
<path d="M12.9174 0.979511C12.9174 0.979511 6.80994 0.332297 6.80994 7.39635V13.3626H12.9174V7.36768H10.5825C10.5825 7.36768 10.132 4.77882 12.9174 4.77882V0.979511Z" fill="#EC1654"/>
<path d="M71.6549 67.0383C71.6549 67.0383 77.9999 67.7101 77.9999 60.3716V54.1719H71.6549V60.4003H74.0819C74.0819 60.4003 74.5489 63.0895 71.6549 63.0895V67.0363V67.0383Z" fill="#EC1654"/>
<path d="M64.5787 67.0383C64.5787 67.0383 70.9238 67.7101 70.9238 60.3716V54.1719H64.5787V60.4003H67.0057C67.0057 60.4003 67.4727 63.0895 64.5787 63.0895V67.0363V67.0383Z" fill="#EC1654"/>
<path d="M51.5978 12.615V14.5792H52.0135V12.615H51.5978Z" fill="#1A0A33"/>
<path d="M55.0633 12.871C54.8871 12.701 54.6373 12.615 54.3157 12.615H53.6992V14.5792H54.2584C54.6045 14.5792 54.8687 14.4932 55.053 14.3191C55.2373 14.1491 55.3275 13.9033 55.3275 13.5756C55.3275 13.2725 55.2414 13.0349 55.0633 12.871ZM54.2973 14.2351H54.117V12.9571H54.3403C54.7151 12.9571 54.8994 13.1701 54.8994 13.592C54.8994 14.0139 54.7007 14.2351 54.2973 14.2351Z" fill="#1A0A33"/>
<path d="M57.0192 12.615V14.5792H57.4349V12.615H57.0192Z" fill="#1A0A33"/>
<path d="M60.7549 12.8199C60.5931 12.6437 60.3658 12.5598 60.0627 12.5598C59.7595 12.5598 59.5281 12.6458 59.3663 12.8158C59.2045 12.9919 59.1246 13.2418 59.1246 13.5695C59.1246 13.8972 59.2045 14.1471 59.3663 14.3232C59.5281 14.4932 59.7595 14.5833 60.0586 14.5833C60.3576 14.5833 60.5931 14.4932 60.7549 14.3232C60.9167 14.1471 60.9966 13.8972 60.9966 13.5695C60.9966 13.2418 60.9167 12.996 60.7549 12.8219V12.8199ZM60.0586 14.229C59.8927 14.229 59.7698 14.1716 59.6838 14.0631C59.6039 13.9504 59.5609 13.7886 59.5609 13.5654C59.5609 13.3421 59.6039 13.1824 59.6879 13.0677C59.7677 12.9591 59.8968 12.9018 60.0627 12.9018C60.3945 12.9018 60.5604 13.125 60.5604 13.5654C60.5604 14.0057 60.3945 14.229 60.0586 14.229Z" fill="#1A0A33"/>
<path d="M64.2162 12.615L63.7247 14.1163H63.7144L63.2495 12.615H62.6863V14.5792H63.0549V13.6657C63.0549 13.5613 63.0447 13.3524 63.0304 13.0369H63.0406L63.5137 14.5812H63.8967L64.4026 13.0431H64.4128C64.4026 13.2889 64.3985 13.4404 64.3985 13.4978C64.3944 13.5592 64.3944 13.6063 64.3944 13.6493V14.5812H64.7835V12.6171H64.2162V12.615Z" fill="#1A0A33"/>
<path d="M67.6776 12.6068H67.1655L66.4733 14.5813H66.9239L67.0652 14.1122H67.78L67.9213 14.5813H68.3719L67.6755 12.6068H67.6776ZM67.1717 13.762C67.3089 13.3114 67.3949 13.0288 67.4236 12.9141C67.4338 12.9427 67.442 12.9898 67.4605 13.041C67.4748 13.0984 67.5506 13.3401 67.6837 13.7599H67.1717V13.762Z" fill="#1A0A33"/>
<path d="M71.2371 13.6801C71.1715 13.5941 71.0425 13.5039 70.8623 13.42C70.721 13.3544 70.6349 13.3073 70.5981 13.2827C70.5612 13.2541 70.5325 13.2315 70.5182 13.2029C70.4998 13.1742 70.4895 13.1414 70.4895 13.1087C70.4895 13.0472 70.5141 13.0001 70.5551 12.9612C70.5981 12.9223 70.6554 12.91 70.7353 12.91C70.8008 12.91 70.8684 12.9141 70.9381 12.9346C71.0036 12.953 71.0896 12.9817 71.1982 13.0247L71.3313 12.7031C71.2309 12.656 71.1326 12.6232 71.0425 12.5987C70.9483 12.5741 70.8479 12.5598 70.7496 12.5598C70.5407 12.5598 70.3748 12.611 70.2622 12.7113C70.1434 12.8117 70.0819 12.9489 70.0819 13.1189C70.0819 13.2131 70.1004 13.295 70.1393 13.3606C70.1721 13.4323 70.2192 13.4937 70.2806 13.5449C70.3421 13.5961 70.4322 13.6494 70.551 13.7067C70.6779 13.7682 70.764 13.8112 70.807 13.8398C70.85 13.8685 70.8787 13.8972 70.9012 13.93C70.9196 13.9586 70.934 13.9914 70.934 14.0303C70.934 14.102 70.9094 14.1532 70.8582 14.186C70.8111 14.2228 70.7394 14.2372 70.6493 14.2372C70.5735 14.2372 70.4875 14.2269 70.3974 14.2044C70.3031 14.1757 70.1885 14.1389 70.0574 14.0774V14.4666C70.2233 14.5465 70.4076 14.5854 70.6165 14.5854C70.8438 14.5854 71.0241 14.5342 71.147 14.4338C71.2739 14.3294 71.3415 14.188 71.3415 14.0119C71.3415 13.8849 71.3088 13.7743 71.2371 13.6862V13.6801Z" fill="#1A0A33"/>
<path d="M71.3374 0.963135V6.89661L66.3708 0.963135H63.9602V6.9048L58.9894 0.963135H53.9613L51.5978 3.78548V0.963135H49.1831V10.5935H51.5978V7.19769L54.4385 10.5935H58.9935V4.4245L64.1547 10.5935H66.3851V4.43884L71.5402 10.5935H73.746V0.963135H71.3354H71.3374ZM56.5706 9.68004L53.0622 5.49363L56.5706 1.30313V9.67799V9.68004Z" fill="#1A0A33"/>
<path d="M75.1818 1.72503C75.2248 1.7066 75.2616 1.67792 75.2862 1.63491C75.3108 1.59805 75.3231 1.55503 75.3231 1.50178C75.3231 1.4219 75.2944 1.36046 75.2473 1.32155C75.1961 1.27853 75.1244 1.2601 75.0343 1.2601H74.8315V2.10189H74.9319V1.75575H75.0937L75.2924 2.10189H75.405L75.1818 1.72298V1.72503ZM75.0343 1.68202H74.9299V1.34203H75.0343C75.1572 1.34203 75.2227 1.39938 75.2227 1.50793C75.2227 1.56527 75.2043 1.60829 75.1715 1.64106C75.1388 1.66973 75.0957 1.68407 75.0343 1.68407V1.68202Z" fill="#1A0A33"/>
<path d="M75.6876 1.32361C75.6221 1.21096 75.5361 1.12494 75.4234 1.0594C75.3149 0.995905 75.192 0.963135 75.0691 0.963135C74.936 0.963135 74.8172 0.995905 74.7045 1.05735C74.596 1.12289 74.5059 1.21301 74.4444 1.32156C74.3789 1.43421 74.3502 1.553 74.3502 1.68203C74.3502 1.81107 74.3789 1.92781 74.4403 2.03636C74.5018 2.14491 74.5919 2.23503 74.7004 2.30057C74.8131 2.36611 74.938 2.40093 75.0691 2.40093C75.2002 2.40093 75.321 2.36816 75.4337 2.30057C75.5422 2.23503 75.6323 2.14491 75.6938 2.03636C75.7552 1.92371 75.7839 1.80902 75.7839 1.68203C75.7839 1.55505 75.7552 1.43011 75.6897 1.32156L75.6876 1.32361ZM75.6119 1.9995C75.5545 2.09371 75.4746 2.16949 75.3804 2.22684C75.2862 2.28419 75.1777 2.31286 75.0671 2.31286C74.9565 2.31286 74.8438 2.28419 74.7496 2.22684C74.6492 2.16949 74.5735 2.09371 74.5182 1.9995C74.4608 1.89914 74.4321 1.79673 74.4321 1.68203C74.4321 1.56734 74.4608 1.46493 74.5182 1.36867C74.5755 1.26831 74.6554 1.18843 74.7496 1.13723C74.85 1.07988 74.9524 1.05121 75.0671 1.05121C75.1817 1.05121 75.2842 1.07988 75.3845 1.13723C75.4849 1.19867 75.5606 1.27445 75.6119 1.36867C75.6692 1.46903 75.6979 1.57143 75.6979 1.68203C75.6979 1.79263 75.6692 1.89914 75.6119 1.9995Z" fill="#1A0A33"/>
<path d="M51.5978 12.615V14.5792H52.0135V12.615H51.5978Z" fill="#1A0A33"/>
<path d="M55.0633 12.871C54.8871 12.701 54.6373 12.615 54.3157 12.615H53.6992V14.5792H54.2584C54.6045 14.5792 54.8687 14.4932 55.053 14.3191C55.2373 14.1491 55.3275 13.9033 55.3275 13.5756C55.3275 13.2725 55.2414 13.0349 55.0633 12.871ZM54.2973 14.2351H54.117V12.9571H54.3403C54.7151 12.9571 54.8994 13.1701 54.8994 13.592C54.8994 14.0139 54.7007 14.2351 54.2973 14.2351Z" fill="#1A0A33"/>
<path d="M57.0192 12.615V14.5792H57.4349V12.615H57.0192Z" fill="#1A0A33"/>
<path d="M60.7549 12.8199C60.5931 12.6437 60.3658 12.5598 60.0627 12.5598C59.7595 12.5598 59.5281 12.6458 59.3663 12.8158C59.2045 12.9919 59.1246 13.2418 59.1246 13.5695C59.1246 13.8972 59.2045 14.1471 59.3663 14.3232C59.5281 14.4932 59.7595 14.5833 60.0586 14.5833C60.3576 14.5833 60.5931 14.4932 60.7549 14.3232C60.9167 14.1471 60.9966 13.8972 60.9966 13.5695C60.9966 13.2418 60.9167 12.996 60.7549 12.8219V12.8199ZM60.0586 14.229C59.8927 14.229 59.7698 14.1716 59.6838 14.0631C59.6039 13.9504 59.5609 13.7886 59.5609 13.5654C59.5609 13.3421 59.6039 13.1824 59.6879 13.0677C59.7677 12.9591 59.8968 12.9018 60.0627 12.9018C60.3945 12.9018 60.5604 13.125 60.5604 13.5654C60.5604 14.0057 60.3945 14.229 60.0586 14.229Z" fill="#1A0A33"/>
<path d="M64.2162 12.615L63.7247 14.1163H63.7144L63.2495 12.615H62.6863V14.5792H63.0549V13.6657C63.0549 13.5613 63.0447 13.3524 63.0304 13.0369H63.0406L63.5137 14.5812H63.8967L64.4026 13.0431H64.4128C64.4026 13.2889 64.3985 13.4404 64.3985 13.4978C64.3944 13.5592 64.3944 13.6063 64.3944 13.6493V14.5812H64.7835V12.6171H64.2162V12.615Z" fill="#1A0A33"/>
<path d="M67.6776 12.6068H67.1655L66.4733 14.5813H66.9239L67.0652 14.1122H67.78L67.9213 14.5813H68.3719L67.6755 12.6068H67.6776ZM67.1717 13.762C67.3089 13.3114 67.3949 13.0288 67.4236 12.9141C67.4338 12.9427 67.442 12.9898 67.4605 13.041C67.4748 13.0984 67.5506 13.3401 67.6837 13.7599H67.1717V13.762Z" fill="#1A0A33"/>
<path d="M71.2371 13.6801C71.1715 13.5941 71.0425 13.5039 70.8623 13.42C70.721 13.3544 70.6349 13.3073 70.5981 13.2827C70.5612 13.2541 70.5325 13.2315 70.5182 13.2029C70.4998 13.1742 70.4895 13.1414 70.4895 13.1087C70.4895 13.0472 70.5141 13.0001 70.5551 12.9612C70.5981 12.9223 70.6554 12.91 70.7353 12.91C70.8008 12.91 70.8684 12.9141 70.9381 12.9346C71.0036 12.953 71.0896 12.9817 71.1982 13.0247L71.3313 12.7031C71.2309 12.656 71.1326 12.6232 71.0425 12.5987C70.9483 12.5741 70.8479 12.5598 70.7496 12.5598C70.5407 12.5598 70.3748 12.611 70.2622 12.7113C70.1434 12.8117 70.0819 12.9489 70.0819 13.1189C70.0819 13.2131 70.1004 13.295 70.1393 13.3606C70.1721 13.4323 70.2192 13.4937 70.2806 13.5449C70.3421 13.5961 70.4322 13.6494 70.551 13.7067C70.6779 13.7682 70.764 13.8112 70.807 13.8398C70.85 13.8685 70.8787 13.8972 70.9012 13.93C70.9196 13.9586 70.934 13.9914 70.934 14.0303C70.934 14.102 70.9094 14.1532 70.8582 14.186C70.8111 14.2228 70.7394 14.2372 70.6493 14.2372C70.5735 14.2372 70.4875 14.2269 70.3974 14.2044C70.3031 14.1757 70.1885 14.1389 70.0574 14.0774V14.4666C70.2233 14.5465 70.4076 14.5854 70.6165 14.5854C70.8438 14.5854 71.0241 14.5342 71.147 14.4338C71.2739 14.3294 71.3415 14.188 71.3415 14.0119C71.3415 13.8849 71.3088 13.7743 71.2371 13.6862V13.6801Z" fill="#1A0A33"/>
<path d="M0.692261 22.8537V16.4963H3.01071L4.87654 19.9781L5.00557 20.312H5.01376L5.14279 19.9781L7.00042 16.4963H9.32707V22.8537H7.51245V19.1138L7.52883 18.6857H7.52064L7.38342 19.0278L5.75722 21.9628H4.25187L2.62567 19.0278L2.49664 18.6857H2.48845L2.50483 19.1138V22.8537H0.692261Z" fill="#1A0A33"/>
<path d="M10.8856 22.8537V16.4963H12.819V22.8537H10.8856Z" fill="#1A0A33"/>
<path d="M15.9935 22.8537V17.9156H13.7427V16.4963H20.186V17.9156H17.9351V22.8537H15.9935Z" fill="#1A0A33"/>
<path d="M20.4707 19.7405V19.6217C20.4707 17.4999 21.8388 16.3611 24.2433 16.3611C26.6478 16.3611 28.0159 17.4999 28.0159 19.6217V19.7405C28.0159 21.8624 26.6478 23.0094 24.2433 23.0094C21.8388 23.0094 20.4707 21.8624 20.4707 19.7405ZM26.0579 19.7835V19.5869C26.0579 18.44 25.3657 17.8071 24.2433 17.8071C23.121 17.8071 22.4287 18.4236 22.4287 19.5869V19.7835C22.4287 20.9387 23.121 21.5634 24.2433 21.5634C25.3657 21.5634 26.0579 20.9223 26.0579 19.7835Z" fill="#1A0A33"/>
<path d="M28.7799 20.7503H30.6457C30.6621 21.2971 30.996 21.674 32.0835 21.674C32.9826 21.674 33.3247 21.4343 33.3247 21.0411C33.3247 20.6048 33.1116 20.4676 31.7497 20.2464C29.4988 19.929 28.9868 19.2715 28.9868 18.2188C28.9868 17.166 29.7917 16.3611 31.9565 16.3611C34.1214 16.3611 35.0287 17.293 35.1045 18.5854H33.3165C33.2653 18.1061 32.9908 17.6965 32.0159 17.6965C31.2028 17.6965 30.9038 17.9197 30.9038 18.2433C30.9038 18.5854 31.084 18.782 32.1101 18.9274C34.8136 19.2961 35.2499 20.0314 35.2499 20.9981C35.2499 22.3335 34.1296 23.0094 32.0753 23.0094C29.7814 23.0094 28.8147 22.0344 28.782 20.7503H28.7799Z" fill="#1A0A33"/>
<path d="M7.29938 30.8824V32.1912H6.85495C6.10124 32.1912 5.48681 32.0806 4.89491 31.7816C4.31325 32.056 3.63737 32.2014 2.9103 32.2014C1.16531 32.2014 0.309204 31.4907 0.309204 30.4134V30.3028C0.309204 29.5491 0.78846 28.865 1.80637 28.4718C1.48072 27.9331 1.37012 27.5726 1.37012 27.2654V27.1712C1.37012 26.2639 2.06238 25.5532 3.55135 25.5532C5.04032 25.5532 5.63018 26.2127 5.63018 27.0258C5.63018 27.8389 5.04852 28.4554 3.88519 28.8834L4.02242 29.0637C4.33987 29.4836 4.62046 29.8072 4.87852 30.0652C5.22056 29.6638 5.43561 29.1149 5.43561 28.4042V28.3366H6.94097V28.4226C6.94097 29.3893 6.65013 30.1943 6.14425 30.8108C6.40027 30.8701 6.67471 30.8886 6.99217 30.8886H7.29938V30.8824ZM2.06238 30.2496C2.06238 30.6346 2.37984 30.8579 2.98608 30.8579C3.19908 30.8579 3.40594 30.8333 3.61894 30.7903C3.36293 30.5261 3.08848 30.2168 2.80584 29.8584L2.49863 29.4733C2.22418 29.6433 2.06238 29.9014 2.06238 30.1656V30.2516V30.2496ZM3.02089 27.2716C3.02089 27.4518 3.08029 27.6484 3.26871 27.9741C3.88519 27.7262 4.14121 27.4702 4.14121 27.161C4.14121 26.9049 4.01218 26.6981 3.59436 26.6981C3.17655 26.6981 3.02089 26.9213 3.02089 27.1855V27.2716Z" fill="#1A0A33"/>
<path d="M11.1683 25.6884H13.2554L15.0003 30.5322L15.0515 30.7206H15.0782L15.1376 30.5322L16.8744 25.6884H18.9716L16.3705 32.0458H13.7346L11.1683 25.6884Z" fill="#1A0A33"/>
<path d="M19.9055 32.0478V25.6904H25.6464V27.1016H21.8389V28.1707H25.3125V29.4365H21.8389V30.6346H25.716V32.0458H19.9055V32.0478Z" fill="#1A0A33"/>
<path d="M26.8547 32.0478V25.6904H30.611C32.6468 25.6904 33.4435 26.4441 33.4435 27.6075V27.6157C33.4435 28.48 32.9212 29.0616 32.0487 29.2419V29.2501C32.7328 29.4201 33.0318 29.7724 33.1875 30.6612L33.2653 31.1139C33.3431 31.5338 33.4271 31.7898 33.5397 32.0458H31.5715C31.4937 31.8656 31.4343 31.6444 31.3319 31.1221L31.2459 30.6694C31.168 30.2332 30.8526 30.0202 30.0477 30.0202H28.7902V32.0478H26.8568H26.8547ZM28.7881 28.6745H30.4655C31.125 28.6745 31.5019 28.4001 31.5019 27.845V27.8287C31.5019 27.3576 31.1599 27.1016 30.5004 27.1016H28.7881V28.6766V28.6745Z" fill="#1A0A33"/>
<path d="M34.6498 32.0478V25.6904H38.2606C40.7163 25.6904 41.7772 26.9131 41.7772 28.822V28.9244C41.7772 30.7903 40.7839 32.0478 38.2688 32.0478H34.6498ZM36.5832 30.6264H37.9349C39.1843 30.6264 39.8171 30.182 39.8171 28.9756V28.7626C39.8171 27.5563 39.1843 27.1118 37.9349 27.1118H36.5832V30.6285V30.6264Z" fill="#1A0A33"/>
<path d="M47.8191 32.0478L47.391 30.8661H44.5667L44.1387 32.0478H42.0516L44.6527 25.6904H47.2886L49.9164 32.0478H47.8191ZM45.0378 29.5737H46.9282L46.1233 27.3494L45.986 26.9131H45.9697L45.8406 27.3494L45.0357 29.5737H45.0378Z" fill="#1A0A33"/>
<path d="M50.8503 32.0478V25.6904H54.4611C56.9168 25.6904 57.9777 26.9131 57.9777 28.822V28.9244C57.9777 30.7903 56.9844 32.0478 54.4693 32.0478H50.8503ZM52.7838 30.6264H54.1355C55.3848 30.6264 56.0177 30.182 56.0177 28.9756V28.7626C56.0177 27.5563 55.3848 27.1118 54.1355 27.1118H52.7838V30.6285V30.6264Z" fill="#1A0A33"/>
<path d="M59.1512 32.0478V25.6904H64.8921V27.1016H61.0847V28.1707H64.5582V29.4365H61.0847V30.6346H64.9617V32.0458H59.1512V32.0478Z" fill="#1A0A33"/>
<path d="M65.6888 29.9423H67.5547C67.571 30.4892 67.9049 30.8661 68.9924 30.8661C69.8915 30.8661 70.2336 30.6264 70.2336 30.2332C70.2336 29.7969 70.0206 29.6597 68.6586 29.4385C66.4077 29.121 65.8957 28.4636 65.8957 27.4108C65.8957 26.3581 66.7006 25.5532 68.8654 25.5532C71.0303 25.5532 71.9376 26.4851 72.0134 27.7774H70.2254C70.1742 27.2982 69.8997 26.8886 68.9248 26.8886C68.1117 26.8886 67.8127 27.1118 67.8127 27.4354C67.8127 27.7774 67.993 27.9741 69.0191 28.1195C71.7226 28.4882 72.1588 29.2234 72.1588 30.1902C72.1588 31.5256 71.0385 32.2014 68.9842 32.2014C66.6904 32.2014 65.7237 31.2265 65.6909 29.9423H65.6888Z" fill="#1A0A33"/>
<path d="M0.692261 41.2399V34.8824H2.62567V37.3034H3.69478L5.02195 34.8824H7.238L5.30459 37.9629V38.0141L7.52883 41.2399H5.31278L3.69478 38.7063H2.62567V41.2399H0.692261Z" fill="#1A0A33"/>
<path d="M8.48938 41.2399V34.8824H10.5764L13.751 38.7063L13.9128 38.989V34.8824H15.7356V41.2399H13.6486L10.4658 37.416L10.304 37.1416V41.2399H8.48938Z" fill="#1A0A33"/>
<path d="M17.2942 41.2399V34.8824H19.3812L22.5558 38.7063L22.7176 38.989V34.8824H24.5404V41.2399H22.4534L19.2706 37.416L19.1088 37.1416V41.2399H17.2942Z" fill="#1A0A33"/>
<path d="M29.6523 41.2399V34.8824H31.5858V41.2399H29.6523Z" fill="#1A0A33"/>
<path d="M33.1444 41.2399V34.8824H36.7552C39.2109 34.8824 40.2718 36.1052 40.2718 38.0141V38.1165C40.2718 39.9823 39.2785 41.2399 36.7634 41.2399H33.1444ZM35.0778 39.8185H36.4296C37.6789 39.8185 38.3118 39.374 38.3118 38.1677V37.9547C38.3118 36.7483 37.6789 36.3039 36.4296 36.3039H35.0778V39.8205V39.8185Z" fill="#1A0A33"/>
<path d="M41.4454 41.2399V34.8824H43.3788V41.2399H41.4454Z" fill="#1A0A33"/>
<path d="M44.5503 38.1247V38.0059C44.5503 35.884 45.9184 34.7452 48.3229 34.7452C50.7274 34.7452 52.0955 35.884 52.0955 38.0059V38.1247C52.0955 40.2466 50.7274 41.3935 48.3229 41.3935C45.9184 41.3935 44.5503 40.2466 44.5503 38.1247ZM50.1375 38.1677V37.9711C50.1375 36.8241 49.4453 36.1912 48.3229 36.1912C47.2005 36.1912 46.5083 36.8077 46.5083 37.9711V38.1677C46.5083 39.3228 47.2005 39.9475 48.3229 39.9475C49.4453 39.9475 50.1375 39.3065 50.1375 38.1677Z" fill="#1A0A33"/>
<path d="M53.2711 41.2399V34.8824H55.5895L57.4554 38.3643L57.5844 38.6981H57.5926L57.7216 38.3643L59.5793 34.8824H61.9059V41.2399H60.0913V37.5L60.1077 37.0719H60.0995L59.9622 37.414L58.3361 40.3489H56.8307L55.2045 37.414L55.0755 37.0719H55.0673L55.0837 37.5V41.2399H53.269H53.2711Z" fill="#1A0A33"/>
<path d="M68.6054 41.2399L68.1773 40.0581H65.353L64.9249 41.2399H62.8379L65.439 34.8824H68.0749L70.7026 41.2399H68.6054ZM65.8261 38.7657H67.7165L66.9116 36.5414L66.7743 36.1052H66.758L66.6289 36.5414L65.824 38.7657H65.8261Z" fill="#1A0A33"/>
<path d="M71.0548 39.1344H72.9206C72.937 39.6813 73.2709 40.0581 74.3584 40.0581C75.2575 40.0581 75.5996 39.8185 75.5996 39.4252C75.5996 38.989 75.3865 38.8518 74.0246 38.6306C71.7737 38.3131 71.2617 37.6557 71.2617 36.6029C71.2617 35.5502 72.0666 34.7452 74.2314 34.7452C76.3963 34.7452 77.3036 35.6771 77.3794 36.9695H75.5914C75.5402 36.4903 75.2657 36.0806 74.2908 36.0806C73.4777 36.0806 73.1787 36.3039 73.1787 36.6275C73.1787 36.9695 73.3589 37.1661 74.385 37.3116C77.0885 37.6802 77.5248 38.4155 77.5248 39.3822C77.5248 40.7176 76.4045 41.3935 74.3502 41.3935C72.0563 41.3935 71.0896 40.4186 71.0569 39.1344H71.0548Z" fill="#1A0A33"/>
<path d="M16.649 48.0787V48.0439C16.649 46.262 17.7939 45.3035 19.6126 45.3035C21.3228 45.3035 22.4042 46.2272 22.5107 47.4069V47.4213H21.673V47.4131C21.5583 46.5979 20.7719 45.9671 19.6188 45.9671C18.3449 45.9671 17.5072 46.6758 17.5072 48.0357V48.0931C17.5072 49.4448 18.3449 50.1617 19.6188 50.1617C20.7432 50.1617 21.6013 49.6169 21.6935 48.6952V48.6809H22.523V48.6891C22.4308 49.9139 21.3412 50.8294 19.6106 50.8294C17.7857 50.8294 16.647 49.8709 16.647 48.0808L16.649 48.0787Z" fill="#1A0A33"/>
<path d="M23.3341 48.0705V48.0357C23.3341 46.2538 24.479 45.3014 26.3612 45.3014C28.2434 45.3014 29.3965 46.2538 29.3965 48.0357V48.0705C29.3965 49.8667 28.2516 50.8252 26.3694 50.8252C24.4872 50.8252 23.3341 49.8667 23.3341 48.0705ZM28.5363 48.0848V48.0275C28.5363 46.6818 27.6925 45.967 26.3673 45.967C25.0422 45.967 24.1923 46.6757 24.1923 48.0275V48.0848C24.1923 49.4448 25.0361 50.1596 26.3673 50.1596C27.6986 50.1596 28.5363 49.4305 28.5363 48.0848Z" fill="#1A0A33"/>
<path d="M30.6191 50.7187V45.4018H31.5428L35.1864 49.5534L35.2724 49.6824V45.4018H36.0876V50.7187H35.1639L31.5203 46.5754L31.4425 46.4463V50.7187H30.6191Z" fill="#1A0A33"/>
<path d="M37.0462 45.4018H37.976L40.0016 49.9671L40.0446 50.0879H40.059L40.1081 49.9671L42.1255 45.4018H43.0553L40.5997 50.7187H39.4896L37.0421 45.4018H37.0462Z" fill="#1A0A33"/>
<path d="M44.024 50.7187V45.4018H48.5606V46.0736H44.874V47.6773H48.2657V48.2999H44.874V50.0531H48.6036V50.7187H44.024Z" fill="#1A0A33"/>
<path d="M49.7505 50.7187V45.4018H50.6742L54.3178 49.5534L54.4038 49.6824V45.4018H55.2189V50.7187H54.2952L50.6517 46.5754L50.5738 46.4463V50.7187H49.7505Z" fill="#1A0A33"/>
<path d="M58.3587 50.7187V46.0736H56.1406V45.4018H61.4288V46.0736H59.2107V50.7187H58.3587Z" fill="#1A0A33"/>
<path d="M62.3525 50.7187V45.4018H63.2046V50.7187H62.3525Z" fill="#1A0A33"/>
<path d="M64.4293 48.0705V48.0357C64.4293 46.2538 65.5742 45.3014 67.4564 45.3014C69.3386 45.3014 70.4917 46.2538 70.4917 48.0357V48.0705C70.4917 49.8667 69.3468 50.8252 67.4646 50.8252C65.5824 50.8252 64.4293 49.8667 64.4293 48.0705ZM69.6315 48.0848V48.0275C69.6315 46.6818 68.7877 45.967 67.4626 45.967C66.1374 45.967 65.2875 46.6757 65.2875 48.0275V48.0848C65.2875 49.4448 66.1313 50.1596 67.4626 50.1596C68.7938 50.1596 69.6315 49.4305 69.6315 48.0848Z" fill="#1A0A33"/>
<path d="M71.7145 50.7187V45.4018H72.6382L76.2818 49.5534L76.3678 49.6824V45.4018H77.1829V50.7187H76.2592L72.6156 46.5754L72.5378 46.4463V50.7187H71.7145Z" fill="#1A0A33"/>
<path d="M16.6572 58.4054V57.7746C18.0028 56.7792 20.522 55.7346 20.522 54.518C20.5138 53.9876 19.9772 53.623 19.0617 53.623C17.7878 53.623 17.5236 54.2026 17.5236 54.7618V54.77H16.7228C16.7228 53.8176 17.2962 52.9881 19.0699 52.9881C20.4872 52.9881 21.3679 53.5595 21.3679 54.4771C21.3679 55.9374 19.0556 56.9594 17.8615 57.748H21.3679V58.4054H16.6593H16.6572Z" fill="#1A0A33"/>
<path d="M22.1892 55.7653V55.7305C22.1892 53.9917 23.0842 52.9901 24.9091 52.9901C26.734 52.9901 27.629 53.9917 27.629 55.7305V55.7653C27.629 57.5042 26.7421 58.514 24.9091 58.514C23.076 58.514 22.1892 57.5042 22.1892 55.7653ZM26.777 55.7735V55.7223C26.777 54.4279 26.1892 53.6537 24.9091 53.6537C23.629 53.6537 23.0412 54.4115 23.0412 55.7223V55.7735C23.0412 57.0823 23.6352 57.8483 24.9091 57.8483C26.183 57.8483 26.777 57.0762 26.777 55.7735Z" fill="#1A0A33"/>
<path d="M28.4584 58.4054V57.7746C29.804 56.7792 32.3231 55.7346 32.3231 54.518C32.315 53.9876 31.7784 53.623 30.8628 53.623C29.5889 53.623 29.3247 54.2026 29.3247 54.7618V54.77H28.5239C28.5239 53.8176 29.0974 52.9881 30.871 52.9881C32.2883 52.9881 33.169 53.5595 33.169 54.4771C33.169 55.9374 30.8567 56.9594 29.6627 57.748H33.169V58.4054H28.4604H28.4584Z" fill="#1A0A33"/>
<path d="M37.1977 58.4054V57.4612H33.9269V56.9594L36.1532 53.0884H37.0257L34.8567 56.8181H37.1977V55.1427H38.021V56.8181H39.0656V57.4612H38.021V58.4054H37.1977Z" fill="#1A0A33"/>
<path d="M7.16016 46.2988V47.1672H11.4346L7.18678 51.4151L7.80121 52.0295L12.049 47.7817V52.0562H12.9174V46.2988H7.16016Z" fill="#EC1654"/>
</svg>
