<svg width="24" height="24" viewBox="0 0 24 24" fill="none" xmlns="http://www.w3.org/2000/svg">
<mask id="mask0_13_1176" style="mask-type:alpha" maskUnits="userSpaceOnUse" x="0" y="0" width="24" height="25">
<rect y="0.00292969" width="24" height="24" fill="#D9D9D9"/>
</mask>
<g mask="url(#mask0_13_1176)">
<path fill-rule="evenodd" clip-rule="evenodd" d="M9.10802 1.64728C9.03958 1.23175 8.44211 1.23175 8.37366 1.64728L7.90147 4.514C7.66813 5.93063 6.55781 7.04095 5.14118 7.27429L2.27446 7.74648C1.85893 7.81493 1.85893 8.4124 2.27446 8.48084L5.14118 8.95303C6.55781 9.18638 7.66813 10.2967 7.90147 11.7133L8.37366 14.58C8.44211 14.9956 9.03958 14.9956 9.10802 14.58L9.58022 11.7133C9.81356 10.2967 10.9239 9.18638 12.3405 8.95303L15.2072 8.48084C15.6228 8.4124 15.6228 7.81493 15.2072 7.74648L12.3405 7.27429C10.9239 7.04095 9.81356 5.93063 9.58022 4.514L9.10802 1.64728ZM17.8036 12.1881C17.7352 11.7726 17.1377 11.7726 17.0693 12.1881L16.905 13.1855C16.6716 14.6022 15.5613 15.7125 14.1447 15.9458L13.1473 16.1101C12.7317 16.1786 12.7317 16.776 13.1473 16.8445L14.1447 17.0088C15.5613 17.2421 16.6716 18.3524 16.905 19.7691L17.0693 20.7665C17.1377 21.182 17.7352 21.182 17.8036 20.7665L17.9679 19.7691C18.2013 18.3524 19.3116 17.2421 20.7282 17.0088L21.7256 16.8445C22.1412 16.776 22.1412 16.1786 21.7256 16.1101L20.7282 15.9458C19.3116 15.7125 18.2013 14.6022 17.9679 13.1855L17.8036 12.1881Z" fill="#645FC9"/>
</g>
</svg>
