<svg width="284" height="17" viewBox="0 0 284 17" fill="none" xmlns="http://www.w3.org/2000/svg">
<circle cx="18" cy="8.54785" r="2" fill="#FBFCFF"/>
<circle cx="24.8889" cy="8.54785" r="2" fill="#FBFCFF"/>
<circle cx="31.7778" cy="8.54785" r="2" fill="#FBFCFF"/>
<circle cx="38.6666" cy="8.54785" r="2" fill="#FBFCFF"/>
<circle cx="45.5555" cy="8.54785" r="2" fill="#FBFCFF"/>
<circle cx="52.4445" cy="8.54785" r="2" fill="#FBFCFF"/>
<circle cx="59.3334" cy="8.54785" r="2" fill="#FBFCFF"/>
<circle cx="66.2222" cy="8.54785" r="2" fill="#FBFCFF"/>
<circle cx="73.1111" cy="8.54785" r="2" fill="#FBFCFF"/>
<circle cx="80" cy="8.54785" r="2" fill="#FBFCFF"/>
<circle cx="86.8889" cy="8.54785" r="2" fill="#FBFCFF"/>
<circle cx="93.7778" cy="8.54785" r="2" fill="#FBFCFF"/>
<circle cx="100.667" cy="8.54785" r="2" fill="#FBFCFF"/>
<circle cx="107.556" cy="8.54785" r="2" fill="#FBFCFF"/>
<circle cx="114.444" cy="8.54785" r="2" fill="#FBFCFF"/>
<circle cx="121.333" cy="8.54785" r="2" fill="#FBFCFF"/>
<circle cx="128.222" cy="8.54785" r="2" fill="#FBFCFF"/>
<circle cx="135.111" cy="8.54785" r="2" fill="#FBFCFF"/>
<circle cx="142" cy="8.54785" r="2" fill="#FBFCFF"/>
<circle cx="148.889" cy="8.54785" r="2" fill="#FBFCFF"/>
<circle cx="155.778" cy="8.54785" r="2" fill="#FBFCFF"/>
<circle cx="162.667" cy="8.54785" r="2" fill="#FBFCFF"/>
<circle cx="169.556" cy="8.54785" r="2" fill="#FBFCFF"/>
<circle cx="176.444" cy="8.54785" r="2" fill="#FBFCFF"/>
<circle cx="183.333" cy="8.54785" r="2" fill="#FBFCFF"/>
<circle cx="190.222" cy="8.54785" r="2" fill="#FBFCFF"/>
<circle cx="197.111" cy="8.54785" r="2" fill="#FBFCFF"/>
<circle cx="204" cy="8.54785" r="2" fill="#FBFCFF"/>
<circle cx="210.889" cy="8.54785" r="2" fill="#FBFCFF"/>
<circle cx="217.778" cy="8.54785" r="2" fill="#FBFCFF"/>
<circle cx="224.667" cy="8.54785" r="2" fill="#FBFCFF"/>
<circle cx="231.555" cy="8.54785" r="2" fill="#FBFCFF"/>
<circle cx="238.444" cy="8.54785" r="2" fill="#FBFCFF"/>
<circle cx="245.333" cy="8.54785" r="2" fill="#FBFCFF"/>
<circle cx="252.222" cy="8.54785" r="2" fill="#FBFCFF"/>
<circle cx="259.111" cy="8.54785" r="2" fill="#FBFCFF"/>
<circle cx="266" cy="8.54785" r="2" fill="#FBFCFF"/>
<path d="M284 0.152282C282.898 0.152282 281.806 0.369439 280.787 0.791356C279.769 1.21327 278.843 1.83169 278.063 2.61129C277.284 3.39089 276.665 4.31641 276.244 5.33501C275.822 6.3536 275.604 7.44533 275.604 8.54785C275.604 9.65037 275.822 10.7421 276.244 11.7607C276.665 12.7793 277.284 13.7048 278.063 14.4844C278.843 15.264 279.769 15.8824 280.787 16.3043C281.806 16.7263 282.898 16.9434 284 16.9434L284 0.152282Z" fill="#FBFCFF"/>
<path d="M-5.97814e-05 0.152221C1.10246 0.152221 2.19419 0.369378 3.21279 0.791295C4.23138 1.21321 5.1569 1.83163 5.9365 2.61123C6.7161 3.39083 7.33452 4.31635 7.75643 5.33495C8.17835 6.35354 8.39551 7.44527 8.39551 8.54779C8.39551 9.65031 8.17835 10.742 7.75643 11.7606C7.33452 12.7792 6.7161 13.7048 5.9365 14.4844C5.1569 15.264 4.23138 15.8824 3.21278 16.3043C2.19419 16.7262 1.10246 16.9434 -6.11114e-05 16.9434L-5.97814e-05 0.152221Z" fill="#FBFCFF"/>
</svg>
