<svg width="253" height="15" viewBox="0 0 253 15" fill="none" xmlns="http://www.w3.org/2000/svg">
<path d="M0.753906 14.9518V0.824158H2.33741V14.9518H0.753906ZM3.92092 14.9518V0.824158H8.67143V14.9518H3.92092ZM10.2549 14.9518V0.824158H11.8384V14.9518H10.2549ZM13.4219 14.9518V0.824158H18.1725V14.9518H13.4219ZM22.923 14.9518V0.824158H24.5065V14.9518H22.923Z" fill="#F2F7FF"/>
<path d="M26.1147 14.9518V0.824158H30.8652V14.9518H26.1147ZM32.4488 14.9518V0.824158H34.0323V14.9518H32.4488ZM35.6158 14.9518V0.824158H37.1993V14.9518H35.6158ZM41.9498 14.9518V0.824158H43.5333V14.9518H41.9498ZM45.1168 14.9518V0.824158H49.8673V14.9518H45.1168Z" fill="#F2F7FF"/>
<path d="M51.4756 14.9518V0.824158H53.0591V14.9518H51.4756ZM54.6426 14.9518V0.824158H59.3931V14.9518H54.6426ZM60.9766 14.9518V0.824158H62.5601V14.9518H60.9766ZM67.3106 14.9518V0.824158H72.0611V14.9518H67.3106ZM73.6446 14.9518V0.824158H75.2281V14.9518H73.6446Z" fill="#F2F7FF"/>
<path d="M76.8364 14.9518V0.824158H78.4199V14.9518H76.8364ZM80.0034 14.9518V0.824158H84.7539V14.9518H80.0034ZM86.3374 14.9518V0.824158H87.9209V14.9518H86.3374ZM92.6714 14.9518V0.824158H94.2549V14.9518H92.6714ZM95.8384 14.9518V0.824158H100.589V14.9518H95.8384Z" fill="#F2F7FF"/>
<path d="M102.197 14.9518V0.824158H106.948V14.9518H102.197ZM108.531 14.9518V0.824158H110.115V14.9518H108.531ZM111.698 14.9518V0.824158H113.282V14.9518H111.698ZM118.032 14.9518V0.824158H119.616V14.9518H118.032ZM121.199 14.9518V0.824158H125.95V14.9518H121.199Z" fill="#F2F7FF"/>
<path d="M127.558 14.9518V0.824158H129.142V14.9518H127.558ZM133.892 14.9518V0.824158H138.643V14.9518H133.892ZM140.226 14.9518V0.824158H141.81V14.9518H140.226ZM143.393 14.9518V0.824158H148.144V14.9518H143.393ZM149.727 14.9518V0.824158H151.311V14.9518H149.727Z" fill="#F2F7FF"/>
<path d="M152.919 14.9518V0.824158H157.669V14.9518H152.919ZM159.253 14.9518V0.824158H164.003V14.9518H159.253ZM165.587 14.9518V0.824158H167.17V14.9518H165.587ZM168.754 14.9518V0.824158H170.337V14.9518H168.754ZM175.088 14.9518V0.824158H176.671V14.9518H175.088Z" fill="#F2F7FF"/>
<path d="M178.28 14.9518V0.824158H183.03V14.9518H178.28ZM184.614 14.9518V0.824158H186.197V14.9518H184.614ZM187.781 14.9518V0.824158H189.364V14.9518H187.781ZM194.115 14.9518V0.824158H195.698V14.9518H194.115ZM197.282 14.9518V0.824158H202.032V14.9518H197.282Z" fill="#F2F7FF"/>
<path d="M203.641 14.9518V0.824158H205.224V14.9518H203.641ZM206.808 14.9518V0.824158H211.558V14.9518H206.808ZM213.142 14.9518V0.824158H214.725V14.9518H213.142ZM219.476 14.9518V0.824158H224.226V14.9518H219.476ZM225.81 14.9518V0.824158H227.393V14.9518H225.81Z" fill="#F2F7FF"/>
<path d="M229.001 14.9518V0.824158H230.585V14.9518H229.001ZM232.168 14.9518V0.824158H236.919V14.9518H232.168ZM238.502 14.9518V0.824158H240.086V14.9518H238.502ZM241.669 14.9518V0.824158H246.42V14.9518H241.669ZM251.17 14.9518V0.824158H252.754V14.9518H251.17Z" fill="#F2F7FF"/>
</svg>
