<svg width="21" height="21" viewBox="0 0 21 21" fill="none" xmlns="http://www.w3.org/2000/svg">
<mask id="mask0_334_128" style="mask-type:alpha" maskUnits="userSpaceOnUse" x="0" y="0" width="21" height="21">
<rect x="0.5" y="0.967773" width="20" height="20" fill="#D9D9D9"/>
</mask>
<g mask="url(#mask0_334_128)">
<path d="M9.42154 13.6794L14.1074 9.01431L13.3334 8.24029L9.42154 12.1313L7.65071 10.3813L6.87669 11.1553L9.42154 13.6794ZM10.5015 18.5511C9.46207 18.5511 8.48148 18.3538 7.55971 17.9591C6.63792 17.5643 5.8311 17.0212 5.13925 16.3297C4.44739 15.6381 3.90401 14.8317 3.5091 13.9103C3.1142 12.989 2.91675 12.0086 2.91675 10.9692C2.91675 9.91595 3.11411 8.9319 3.50883 8.01706C3.90355 7.10222 4.44668 6.29887 5.13821 5.60702C5.82975 4.91516 6.6362 4.37178 7.55756 3.97688C8.47891 3.58197 9.45928 3.38452 10.4987 3.38452C11.5519 3.38452 12.536 3.58188 13.4508 3.97661C14.3657 4.37133 15.169 4.91445 15.8609 5.60598C16.5527 6.29752 17.0961 7.1005 17.491 8.01492C17.8859 8.92932 18.0834 9.91316 18.0834 10.9664C18.0834 12.0058 17.886 12.9864 17.4913 13.9082C17.0966 14.83 16.5534 15.6368 15.8619 16.3286C15.1704 17.0205 14.3674 17.5639 13.453 17.9588C12.5386 18.3537 11.5547 18.5511 10.5015 18.5511ZM10.5001 17.4678C12.3056 17.4678 13.8403 16.8359 15.1042 15.572C16.3681 14.3081 17.0001 12.7734 17.0001 10.9678C17.0001 9.16228 16.3681 7.62756 15.1042 6.36367C13.8403 5.09978 12.3056 4.46783 10.5001 4.46783C8.6945 4.46783 7.15978 5.09978 5.89589 6.36367C4.632 7.62756 4.00006 9.16228 4.00006 10.9678C4.00006 12.7734 4.632 14.3081 5.89589 15.572C7.15978 16.8359 8.6945 17.4678 10.5001 17.4678Z" fill="#00B854"/>
</g>
</svg>
