<svg width="21" height="21" viewBox="0 0 21 21" fill="none" xmlns="http://www.w3.org/2000/svg">
<mask id="mask0_334_125" style="mask-type:alpha" maskUnits="userSpaceOnUse" x="0" y="0" width="21" height="21">
<rect x="0.963135" y="0.967773" width="20" height="20" fill="#D9D9D9"/>
</mask>
<g mask="url(#mask0_334_125)">
<path d="M8.24365 17.5511L4.37988 13.6665V8.24829L8.24365 4.38452H13.6827L17.5465 8.24829V13.6874L13.6619 17.5511H8.24365ZM8.73403 13.9502L10.9632 11.7419L13.1924 13.9502L13.9455 13.197L11.7372 10.9678L13.9455 8.73867L13.1924 7.98548L10.9632 10.1938L8.73403 7.98548L7.98084 8.73867L10.1892 10.9678L7.98084 13.197L8.73403 13.9502ZM8.69236 16.4678H13.234L16.4632 13.2387V8.697L13.2132 5.46783H8.69236L5.4632 8.697V13.2387L8.69236 16.4678Z" fill="#F70052"/>
</g>
</svg>
