<svg width="20" height="21" viewBox="0 0 20 21" fill="none" xmlns="http://www.w3.org/2000/svg">
<mask id="mask0_334_122" style="mask-type:alpha" maskUnits="userSpaceOnUse" x="0" y="0" width="20" height="21">
<rect y="0.967773" width="20" height="20" fill="#D9D9D9"/>
</mask>
<g mask="url(#mask0_334_122)">
<path d="M9.99566 14.7435C10.1615 14.7435 10.302 14.6874 10.4171 14.5752C10.5322 14.463 10.5898 14.324 10.5898 14.1581C10.5898 13.9923 10.5337 13.8518 10.4215 13.7367C10.3093 13.6216 10.1703 13.564 10.0045 13.564C9.8386 13.564 9.69811 13.6201 9.583 13.7323C9.46789 13.8445 9.41033 13.9835 9.41033 14.1493C9.41033 14.3152 9.46643 14.4557 9.57862 14.5708C9.6908 14.6859 9.82982 14.7435 9.99566 14.7435ZM9.45842 12.0319H10.5417V7.03194H9.45842V12.0319ZM10.0072 18.5511C8.96398 18.5511 7.98148 18.3538 7.05971 17.9591C6.13792 17.5643 5.3311 17.0212 4.63925 16.3297C3.94739 15.6381 3.40401 14.832 3.0091 13.9112C2.6142 12.9904 2.41675 12.0066 2.41675 10.9597C2.41675 9.91277 2.61411 8.9319 3.00883 8.01706C3.40355 7.10222 3.94668 6.29887 4.63821 5.60702C5.32975 4.91516 6.13591 4.37178 7.05669 3.97688C7.97746 3.58197 8.9613 3.38452 10.0082 3.38452C11.0551 3.38452 12.036 3.58188 12.9508 3.97661C13.8657 4.37133 14.669 4.91445 15.3609 5.60598C16.0527 6.29752 16.5961 7.10206 16.991 8.01958C17.3859 8.93711 17.5834 9.91748 17.5834 10.9607C17.5834 12.0039 17.386 12.9864 16.9913 13.9082C16.5966 14.83 16.0534 15.6368 15.3619 16.3286C14.6704 17.0205 13.8658 17.5639 12.9483 17.9588C12.0308 18.3537 11.0504 18.5511 10.0072 18.5511ZM10.0001 17.4678C11.8056 17.4678 13.3403 16.8359 14.6042 15.572C15.8681 14.3081 16.5001 12.7734 16.5001 10.9678C16.5001 9.16228 15.8681 7.62756 14.6042 6.36367C13.3403 5.09978 11.8056 4.46783 10.0001 4.46783C8.1945 4.46783 6.65978 5.09978 5.39589 6.36367C4.132 7.62756 3.50006 9.16228 3.50006 10.9678C3.50006 12.7734 4.132 14.3081 5.39589 15.572C6.65978 16.8359 8.1945 17.4678 10.0001 17.4678Z" fill="#FFC82D"/>
</g>
</svg>
